<?xml version="1.0" encoding="utf-8"?><svg viewBox="0 0 41 36" xmlns="http://www.w3.org/2000/svg" xmlns:xlink="http://www.w3.org/1999/xlink"><style>:root>svg{display:none}:root>svg:target{display:block}</style><svg viewBox="0 0 36 36" id="arrow" xmlns="http://www.w3.org/2000/svg"><rect width="36" height="36" rx="18" transform="matrix(1 0 0 -1 0 36)"/><path d="M25.5 15 18 22.5 10.5 15" stroke="#fff" stroke-width="1.636" stroke-linecap="round" stroke-linejoin="round"/></svg><svg fill="none" viewBox="0 0 24 24" id="globe" xmlns="http://www.w3.org/2000/svg"><path d="M22 12c0 5.523-4.477 10-10 10m10-10c0-5.523-4.477-10-10-10m10 10H2m10 10C6.477 22 2 17.523 2 12m10 10a14.5 14.5 0 0 1 0-20m0 20a14.5 14.5 0 0 0 0-20M2 12C2 6.477 6.477 2 12 2"/></svg><svg viewBox="0 0 41 31" id="quote" xmlns="http://www.w3.org/2000/svg"><path d="M31.68 30c-2.8 0-5.12-.92-6.96-2.76-1.76-1.84-2.64-4.48-2.64-7.92 0-3.68 1.04-7.32 3.12-10.92 2.16-3.6 5.16-6.4 9-8.4l2.76 4.2c-4.16 2.88-6.64 6.52-7.44 10.92.72-.32 1.56-.48 2.52-.48 2.24 0 4.08.72 5.52 2.16 1.44 1.44 2.16 3.28 2.16 5.52 0 2.24-.76 4.08-2.28 5.52C35.92 29.28 34 30 31.68 30ZM9.6 30c-2.8 0-5.12-.92-6.96-2.76C.88 25.4 0 22.76 0 19.32 0 15.64 1.04 12 3.12 8.4c2.16-3.6 5.16-6.4 9-8.4l2.76 4.2c-4.16 2.88-6.64 6.52-7.44 10.92.72-.32 1.56-.48 2.52-.48 2.24 0 4.08.72 5.52 2.16 1.44 1.44 2.16 3.28 2.16 5.52 0 2.24-.76 4.08-2.28 5.52C13.84 29.28 11.92 30 9.6 30Z"/></svg><svg viewBox="0 0 21 20" id="telegram" xmlns="http://www.w3.org/2000/svg"><g clip-path="url(#da)"><path d="M20.443 3.634c.268-1.25-.447-1.742-1.251-1.43L1.41 9.04c-1.206.492-1.162 1.162-.179 1.474L5.745 11.9l10.543-6.612c.491-.357.983-.134.58.18L8.337 13.15l-.313 4.691c.491 0 .67-.179.938-.447l2.19-2.144 4.6 3.395c.85.492 1.475.224 1.698-.76l2.994-14.25Z"/></g><defs><clipPath id="da"><path fill="#fff" transform="translate(.5)" d="M0 0h20v20H0z"/></clipPath></defs></svg><svg viewBox="0 0 24 24" id="up" xmlns="http://www.w3.org/2000/svg"><path d="M19.57 9.864a1.37 1.37 0 0 1-1.04.406 1.489 1.489 0 0 1-1.041-.442l-4.054-3.99v15.75c0 .4-.138.735-.413 1.007A1.395 1.395 0 0 1 12 23c-.407 0-.748-.136-1.023-.407a1.35 1.35 0 0 1-.412-1.006V5.837l-4.09 4.027a1.408 1.408 0 0 1-1.023.423c-.395 0-.735-.14-1.022-.423A1.365 1.365 0 0 1 4 8.856c0-.388.144-.724.43-1.005l6.566-6.463a1.27 1.27 0 0 1 .466-.3c.167-.06.347-.089.538-.088.191 0 .37.03.538.089.168.06.323.16.466.3l6.601 6.497c.264.259.395.582.395.97s-.143.724-.43 1.008Z"/></svg></svg>