<svg width="156" height="100" viewBox="0 0 156 100" fill="none" xmlns="http://www.w3.org/2000/svg">
<g filter="url(#filter0_dd_214_1879)">
<path d="M14.04 13.8259C17.1064 13.8259 20.1727 13.8259 23.3057 13.8259C23.3057 34.0731 23.3057 54.287 23.3057 74.6672C20.2061 74.6672 17.1397 74.6672 14.04 74.6672C14.04 54.3867 14.04 34.1063 14.04 13.8259Z" fill="#F5F5F5"/>
<path d="M68.4344 76.6287C66.5346 78.4905 64.8681 80.1861 63.135 81.9149C63.4683 82.2806 63.8349 82.6464 64.2015 83.0453C66.0013 85.0401 66.0013 87.6998 64.1682 89.5616C62.335 91.4234 59.502 91.5232 57.5689 89.5949C53.8693 86.0043 50.2363 82.3139 46.6033 78.69C42.9371 75.0329 39.2041 71.3758 35.5712 67.6521C34.6379 66.688 33.738 66.1893 32.4048 66.3888C31.9715 66.4553 31.5049 66.3888 30.9716 66.3888C30.9716 50.9956 30.9716 35.7022 30.9716 20.3423C36.3377 20.3423 41.6705 20.3423 47.3033 20.3423C44.8369 23.002 42.5038 25.5287 40.1373 28.0887C45.9701 34.605 53.0693 38.0627 61.8351 37.83C66.9679 37.697 71.6674 36.2341 75.9336 33.3749C76.4336 33.0425 77.1335 32.843 77.7668 32.8097C79.9332 32.7432 82.0996 32.7432 84.2661 32.8097C84.8994 32.843 85.6659 33.109 86.0992 33.5412C98.5646 45.9089 110.963 58.3099 123.429 70.7108C124.929 72.2069 125.562 73.8693 124.929 75.8973C123.895 79.0225 119.996 80.0864 117.496 77.9586C117.163 77.6594 116.829 77.3269 116.496 76.9944C107.397 67.9181 98.298 58.8418 89.1989 49.7655C88.799 49.3665 88.4323 48.9011 88.1657 48.5686C86.3325 50.3972 84.5994 52.126 82.5329 54.1873C82.6996 54.287 83.1995 54.42 83.4995 54.7192C90.6321 61.834 97.7314 68.9488 104.864 76.0635C106.164 77.3602 106.864 78.823 106.464 80.6516C105.664 84.2089 101.464 85.5721 98.7313 83.1118C97.5314 82.0147 96.4315 80.851 95.265 79.6874C88.8323 73.2708 82.433 66.8875 76.1336 60.6039C74.3671 62.3659 72.6673 64.0615 70.8675 65.8568C71.2674 66.289 71.8341 66.9207 72.434 67.5524C76.7669 71.8745 81.0998 76.1965 85.4326 80.5186C86.8325 81.9149 87.2324 83.5773 86.6658 85.4391C86.0992 87.2344 84.766 88.2318 82.9662 88.5642C81.2664 88.8635 79.8665 88.1985 78.7 87.0017C75.6003 83.9097 72.5007 80.8178 69.4343 77.7259C68.9677 77.3934 68.7344 76.9944 68.4344 76.6287Z" fill="#F5F5F5"/>
<path d="M124.629 61.9337C124.429 61.5347 124.295 61.036 123.962 60.7368C112.463 49.2335 100.931 37.7634 89.4323 26.2601C88.7657 25.5952 88.1324 25.2627 87.1658 25.296C83.2662 25.3625 79.3333 25.3292 75.4337 25.296C74.5338 25.296 73.8672 25.5287 73.1673 26.0939C66.9013 31.0476 58.2355 31.8123 51.7362 27.9889C51.5029 27.856 51.2696 27.6897 50.9363 27.457C52.3694 25.9277 53.736 24.4316 55.1025 22.9355C59.1687 18.5469 63.235 14.1251 67.3679 9.80306C67.8012 9.37086 68.5678 9.03839 69.1677 9.03839C77.9668 9.00514 86.7325 8.9719 95.5316 9.03839C96.2649 9.03839 97.1648 9.37086 97.7314 9.86955C102.998 14.3578 108.164 18.9126 113.43 23.4009C113.896 23.7999 114.663 24.0991 115.296 24.0991C118.529 24.1656 121.762 24.1323 125.095 24.1323C125.095 36.6995 125.095 49.1338 125.095 61.568C124.929 61.6677 124.762 61.8007 124.629 61.9337Z" fill="#F5F5F5"/>
<path d="M141.96 74.6338C138.86 74.6338 135.861 74.6338 132.761 74.6338C132.761 54.3866 132.761 34.1727 132.761 13.859C135.761 13.859 138.827 13.859 141.96 13.859C141.96 34.073 141.96 54.2869 141.96 74.6338Z" fill="#F5F5F5"/>
</g>
<defs>
<filter id="filter0_dd_214_1879" x="11.04" y="6" width="133.92" height="88" filterUnits="userSpaceOnUse" color-interpolation-filters="sRGB">
<feFlood flood-opacity="0" result="BackgroundImageFix"/>
<feColorMatrix in="SourceAlpha" type="matrix" values="0 0 0 0 0 0 0 0 0 0 0 0 0 0 0 0 0 0 127 0" result="hardAlpha"/>
<feOffset dx="3" dy="3"/>
<feComposite in2="hardAlpha" operator="out"/>
<feColorMatrix type="matrix" values="0 0 0 0 0 0 0 0 0 1 0 0 0 0 1 0 0 0 1 0"/>
<feBlend mode="normal" in2="BackgroundImageFix" result="effect1_dropShadow_214_1879"/>
<feColorMatrix in="SourceAlpha" type="matrix" values="0 0 0 0 0 0 0 0 0 0 0 0 0 0 0 0 0 0 127 0" result="hardAlpha"/>
<feOffset dx="-3" dy="-3"/>
<feComposite in2="hardAlpha" operator="out"/>
<feColorMatrix type="matrix" values="0 0 0 0 1 0 0 0 0 0 0 0 0 0 1 0 0 0 1 0"/>
<feBlend mode="normal" in2="effect1_dropShadow_214_1879" result="effect2_dropShadow_214_1879"/>
<feBlend mode="normal" in="SourceGraphic" in2="effect2_dropShadow_214_1879" result="shape"/>
</filter>
</defs>
</svg>
