<svg width="91" height="100" viewBox="0 0 91 100" fill="none" xmlns="http://www.w3.org/2000/svg">
<g clip-path="url(#clip0_214_1852)">
<path d="M91 23.5002C89.6976 55.6182 75.4382 81.538 46.9527 99.5029C45.8841 100.166 45.0826 100.199 44.014 99.5029C21.2389 85.4492 7.14645 65.4293 1.66975 39.4101C-0.100155 31.0243 -0.367311 22.5059 0.367368 13.9543C0.567735 11.8662 0.734708 11.7004 2.87196 11.6341C17.3318 11.137 30.9233 7.52409 43.5798 0.563534C44.8488 -0.132521 45.8507 -0.198812 47.1197 0.530389C59.843 7.55724 73.5347 11.1701 88.0947 11.6673C89.9982 11.7336 90.232 11.8993 90.3655 13.8217C90.6327 16.6391 90.7663 19.4896 91 23.5002ZM42.2775 50.5138C41.9435 50.3149 41.8767 50.2818 41.8099 50.2155C39.3721 47.829 36.9677 45.4094 34.5299 43.0229C32.1923 40.7027 28.8863 40.6033 26.7156 42.7909C24.5116 44.9785 24.6452 48.1605 27.0162 50.547C30.6228 54.1267 34.2294 57.7064 37.836 61.253C40.5743 63.9709 43.5465 63.9709 46.2848 61.253C52.8969 54.6902 59.509 48.1273 66.1211 41.5645C68.4921 39.2112 68.6257 35.9961 66.4551 33.8085C64.251 31.5877 60.945 31.7203 58.5406 34.0736C53.3644 39.2112 48.2217 44.3156 43.0455 49.4532C42.745 49.7846 42.5112 50.2155 42.2775 50.5138Z" fill="white"/>
</g>
<defs>
<clipPath id="clip0_214_1852">
<rect width="91" height="100" fill="white"/>
</clipPath>
</defs>
</svg>
