<svg width="220" height="220" viewBox="0 0 220 220" fill="none" xmlns="http://www.w3.org/2000/svg">
<g clip-path="url(#clip0_8_93)">
<path opacity="0.3" d="M109.636 220.727C48.6842 220.727 -0.72728 171.316 -0.72728 110.364C-0.72728 49.4115 48.6842 0 109.636 0C170.589 0 220 49.4115 220 110.364C220 171.316 170.589 220.727 109.636 220.727Z" fill="url(#paint0_radial_8_93)"/>
<path d="M109.636 196.182C62.2403 196.182 23.8182 157.76 23.8182 110.364C23.8182 62.9676 62.2403 24.5455 109.636 24.5455C157.032 24.5455 195.455 62.9676 195.455 110.364C195.455 157.76 157.032 196.182 109.636 196.182Z" fill="url(#paint1_radial_8_93)"/>
<g opacity="0.49">
<path d="M109.636 173.455C74.7922 173.455 46.5454 145.208 46.5454 110.364C46.5454 75.5195 74.7922 47.2727 109.636 47.2727C144.481 47.2727 172.727 75.5195 172.727 110.364C172.727 145.208 144.481 173.455 109.636 173.455Z" fill="white"/>
</g>
<path d="M109.636 168C77.8047 168 52 142.195 52 110.364C52 78.532 77.8047 52.7273 109.636 52.7273C141.468 52.7273 167.273 78.532 167.273 110.364C167.273 142.195 141.468 168 109.636 168Z" fill="white"/>
<path d="M142.909 106.545C135.679 106.545 129.818 100.684 129.818 93.4546C129.818 86.2246 135.679 80.3636 142.909 80.3636C150.139 80.3636 156 86.2246 156 93.4546C156 100.684 150.139 106.545 142.909 106.545Z" fill="#EFEFF0"/>
<path d="M154 93.4546C154 86.5455 148.727 80.9091 141.818 80.3636C142.182 80.3636 142.545 80.3636 142.909 80.3636C150.182 80.3636 156 86.1818 156 93.4546C156 100.727 150.182 106.545 142.909 106.545C142.545 106.545 142.182 106.545 141.818 106.545C148.727 106 154 100.364 154 93.4546Z" fill="#D8D9DA"/>
<path d="M111.273 129.636C102.938 129.636 96.1818 122.88 96.1818 114.545C96.1818 106.211 102.938 99.4546 111.273 99.4546C119.607 99.4546 126.364 106.211 126.364 114.545C126.364 122.88 119.607 129.636 111.273 129.636Z" fill="#EFEFF0"/>
<path d="M124 114.545C124 106.545 117.818 100.182 110.182 99.4546C110.545 99.4546 110.909 99.4546 111.273 99.4546C119.636 99.4546 126.364 106.182 126.364 114.545C126.364 122.909 119.636 129.636 111.273 129.636C110.909 129.636 110.545 129.636 110.182 129.636C118 129.091 124 122.545 124 114.545Z" fill="#D8D9DA"/>
<path d="M89.4545 88.1819C83.7309 88.1819 79.0909 83.5419 79.0909 77.8182C79.0909 72.0945 83.7309 67.4546 89.4545 67.4546C95.1782 67.4546 99.8182 72.0945 99.8182 77.8182C99.8182 83.5419 95.1782 88.1819 89.4545 88.1819Z" fill="#EFEFF0"/>
<path d="M98.1818 77.8182C98.1818 72.3637 94 67.8182 88.5454 67.4546C88.7273 67.4546 89.0909 67.4546 89.2727 67.4546C95.0909 67.4546 99.6364 72.1819 99.6364 77.8182C99.6364 83.6364 94.9091 88.1819 89.2727 88.1819C89.0909 88.1819 88.7273 88.1819 88.5454 88.1819C94 87.6364 98.1818 83.2728 98.1818 77.8182Z" fill="#D8D9DA"/>
<path d="M144 141.818C140.485 141.818 137.636 138.969 137.636 135.455C137.636 131.94 140.485 129.091 144 129.091C147.515 129.091 150.364 131.94 150.364 135.455C150.364 138.969 147.515 141.818 144 141.818Z" fill="#EFEFF0"/>
<path d="M149.455 135.455C149.455 132 146.909 129.273 143.455 129.091C143.636 129.091 143.818 129.091 144 129.091C147.636 129.091 150.364 132 150.364 135.455C150.364 139.091 147.455 141.818 144 141.818C143.818 141.818 143.636 141.818 143.455 141.818C146.909 141.636 149.455 138.909 149.455 135.455Z" fill="#D8D9DA"/>
<path d="M70.7273 116C67.7148 116 65.2727 113.558 65.2727 110.545C65.2727 107.533 67.7148 105.091 70.7273 105.091C73.7397 105.091 76.1818 107.533 76.1818 110.545C76.1818 113.558 73.7397 116 70.7273 116Z" fill="#EFEFF0"/>
<path d="M75.4545 110.545C75.4545 107.636 73.2727 105.273 70.3636 105.091C70.5455 105.091 70.7273 105.091 70.7273 105.091C73.8182 105.091 76.1818 107.636 76.1818 110.545C76.1818 113.636 73.6364 116 70.7273 116C70.5455 116 70.3636 116 70.3636 116C73.2727 115.818 75.4545 113.455 75.4545 110.545Z" fill="#D8D9DA"/>
<path d="M120.909 74.1819C117.897 74.1819 115.455 71.7398 115.455 68.7273C115.455 65.7148 117.897 63.2728 120.909 63.2728C123.922 63.2728 126.364 65.7148 126.364 68.7273C126.364 71.7398 123.922 74.1819 120.909 74.1819Z" fill="#EFEFF0"/>
<path d="M125.455 68.7273C125.455 65.8182 123.273 63.4546 120.364 63.2728C120.545 63.2728 120.727 63.2728 120.727 63.2728C123.818 63.2728 126.182 65.8182 126.182 68.7273C126.182 71.8182 123.636 74.1819 120.727 74.1819C120.545 74.1819 120.364 74.1819 120.364 74.1819C123.273 74 125.455 71.6364 125.455 68.7273Z" fill="#D8D9DA"/>
<path d="M86.7273 153.273C82.0077 153.273 78.1818 149.447 78.1818 144.727C78.1818 140.008 82.0077 136.182 86.7273 136.182C91.4468 136.182 95.2727 140.008 95.2727 144.727C95.2727 149.447 91.4468 153.273 86.7273 153.273Z" fill="#EFEFF0"/>
<path d="M94 144.727C94 140.182 90.5455 136.545 86 136.182C86.1818 136.182 86.3636 136.182 86.7273 136.182C91.4545 136.182 95.2727 140 95.2727 144.727C95.2727 149.455 91.4545 153.273 86.7273 153.273C86.5455 153.273 86.3636 153.273 86 153.273C90.5455 152.909 94 149.273 94 144.727Z" fill="#D8D9DA"/>
<path opacity="0.91" d="M110.364 168C124.909 167.818 139.273 162.182 150.364 151.091C155.455 146 159.455 140 162.364 133.818C168.909 118.909 168.909 101.818 162.364 86.9091C159.636 80.5455 155.636 74.7273 150.545 69.6364C139.455 58.5455 125.091 52.9091 110.545 52.7273C98.3636 84.5455 98.3636 136.182 110.364 168Z" fill="#00041E"/>
</g>
<defs>
<radialGradient id="paint0_radial_8_93" cx="0" cy="0" r="1" gradientUnits="userSpaceOnUse" gradientTransform="translate(109.615 110.385) rotate(-90) scale(108.608)">
<stop offset="0.0189189" stop-color="white"/>
<stop offset="1" stop-color="white" stop-opacity="0"/>
</radialGradient>
<radialGradient id="paint1_radial_8_93" cx="0" cy="0" r="1" gradientUnits="userSpaceOnUse" gradientTransform="translate(109.615 110.385) rotate(-90) scale(85.8729)">
<stop offset="0.0189189" stop-color="white"/>
<stop offset="0.9081" stop-color="white" stop-opacity="0"/>
</radialGradient>
<clipPath id="clip0_8_93">
<rect width="220" height="220" fill="white" transform="matrix(-1 0 0 1 220 0)"/>
</clipPath>
</defs>
</svg>
