<svg width="220" height="220" viewBox="0 0 220 220" fill="none" xmlns="http://www.w3.org/2000/svg">
<g clip-path="url(#clip0_8_60)">
<path opacity="0.3" d="M110 220C49.2487 220 0 170.751 0 110C0 49.2487 49.2487 0 110 0C170.751 0 220 49.2487 220 110C220 170.751 170.751 220 110 220Z" fill="url(#paint0_radial_8_60)"/>
<path d="M110 195.535C62.7601 195.535 24.4646 157.24 24.4646 110C24.4646 62.7601 62.7601 24.4646 110 24.4646C157.24 24.4646 195.535 62.7601 195.535 110C195.535 157.24 157.24 195.535 110 195.535Z" fill="url(#paint1_radial_8_60)"/>
<g opacity="0.49">
<path d="M110 172.883C75.2707 172.883 47.117 144.729 47.117 110C47.117 75.2706 75.2707 47.1169 110 47.1169C144.729 47.1169 172.883 75.2706 172.883 110C172.883 144.729 144.729 172.883 110 172.883Z" fill="white"/>
</g>
<path d="M110 167.446C78.2732 167.446 52.5535 141.727 52.5535 110C52.5535 78.2732 78.2732 52.5535 110 52.5535C141.727 52.5535 167.446 78.2732 167.446 110C167.446 141.727 141.727 167.446 110 167.446Z" fill="white"/>
<path d="M143.163 106.194C135.957 106.194 130.115 100.353 130.115 93.1466C130.115 85.9405 135.957 80.0988 143.163 80.0988C150.369 80.0988 156.211 85.9405 156.211 93.1466C156.211 100.353 150.369 106.194 143.163 106.194Z" fill="#EFEFF0"/>
<path d="M154.217 93.1466C154.217 86.2603 148.962 80.6425 142.076 80.0988C142.438 80.0988 142.801 80.0988 143.163 80.0988C150.412 80.0988 156.211 85.8978 156.211 93.1466C156.211 100.395 150.412 106.194 143.163 106.194C142.801 106.194 142.438 106.194 142.076 106.194C148.962 105.651 154.217 100.033 154.217 93.1466Z" fill="#D8D9DA"/>
<path d="M111.631 129.209C103.324 129.209 96.5898 122.475 96.5898 114.168C96.5898 105.861 103.324 99.1268 111.631 99.1268C119.938 99.1268 126.672 105.861 126.672 114.168C126.672 122.475 119.938 129.209 111.631 129.209Z" fill="#EFEFF0"/>
<path d="M124.316 114.168C124.316 106.194 118.155 99.8517 110.544 99.1268C110.906 99.1268 111.269 99.1268 111.631 99.1268C119.967 99.1268 126.672 105.832 126.672 114.168C126.672 122.504 119.967 129.209 111.631 129.209C111.269 129.209 110.906 129.209 110.544 129.209C118.336 128.666 124.316 122.142 124.316 114.168Z" fill="#D8D9DA"/>
<path d="M89.8847 87.8913C84.1799 87.8913 79.5552 83.2666 79.5552 77.5618C79.5552 71.857 84.1799 67.2323 89.8847 67.2323C95.5895 67.2323 100.214 71.857 100.214 77.5618C100.214 83.2666 95.5895 87.8913 89.8847 87.8913Z" fill="#EFEFF0"/>
<path d="M98.5832 77.5618C98.5832 72.1252 94.4152 67.5947 88.9786 67.2323C89.1598 67.2323 89.5222 67.2323 89.7035 67.2323C95.5025 67.2323 100.033 71.944 100.033 77.5618C100.033 83.1796 95.3213 87.8913 89.7035 87.8913C89.5222 87.8913 89.1598 87.8913 88.9786 87.8913C94.4152 87.3476 98.5832 82.9984 98.5832 77.5618Z" fill="#D8D9DA"/>
<path d="M144.25 141.351C140.747 141.351 137.908 138.511 137.908 135.008C137.908 131.505 140.747 128.666 144.25 128.666C147.753 128.666 150.593 131.505 150.593 135.008C150.593 138.511 147.753 141.351 144.25 141.351Z" fill="#EFEFF0"/>
<path d="M149.687 135.008C149.687 131.565 147.15 128.847 143.707 128.666C143.888 128.666 144.069 128.666 144.25 128.666C147.875 128.666 150.593 131.565 150.593 135.008C150.593 138.451 147.694 141.351 144.25 141.351C144.069 141.351 143.888 141.351 143.707 141.351C147.15 141.17 149.687 138.451 149.687 135.008Z" fill="#D8D9DA"/>
<path d="M71.2191 115.618C68.2166 115.618 65.7825 113.184 65.7825 110.181C65.7825 107.179 68.2166 104.745 71.2191 104.745C74.2216 104.745 76.6557 107.179 76.6557 110.181C76.6557 113.184 74.2216 115.618 71.2191 115.618Z" fill="#EFEFF0"/>
<path d="M75.9308 110.181C75.9308 107.282 73.7562 104.926 70.8567 104.745C71.0379 104.745 71.2191 104.745 71.2191 104.745C74.2998 104.745 76.6557 107.282 76.6557 110.181C76.6557 113.262 74.1186 115.618 71.2191 115.618C71.0379 115.618 70.8567 115.618 70.8567 115.618C73.7562 115.437 75.9308 113.081 75.9308 110.181Z" fill="#D8D9DA"/>
<path d="M121.236 73.9374C118.233 73.9374 115.799 71.5033 115.799 68.5008C115.799 65.4982 118.233 63.0642 121.236 63.0642C124.238 63.0642 126.672 65.4982 126.672 68.5008C126.672 71.5033 124.238 73.9374 121.236 73.9374Z" fill="#EFEFF0"/>
<path d="M125.766 68.5008C125.766 65.6013 123.591 63.2454 120.692 63.0642C120.873 63.0642 121.054 63.0642 121.054 63.0642C124.135 63.0642 126.491 65.6013 126.491 68.5008C126.491 71.4003 123.954 73.9374 121.054 73.9374C120.873 73.9374 120.692 73.9374 120.692 73.9374C123.591 73.7561 125.766 71.4003 125.766 68.5008Z" fill="#D8D9DA"/>
<path d="M87.1664 152.768C82.4624 152.768 78.6491 148.954 78.6491 144.25C78.6491 139.546 82.4624 135.733 87.1664 135.733C91.8704 135.733 95.6837 139.546 95.6837 144.25C95.6837 148.954 91.8704 152.768 87.1664 152.768Z" fill="#EFEFF0"/>
<path d="M94.4151 144.25C94.4151 139.72 90.972 136.096 86.4415 135.733C86.6227 135.733 86.8039 135.733 87.1664 135.733C91.8781 135.733 95.6837 139.539 95.6837 144.25C95.6837 148.962 91.8781 152.768 87.1664 152.768C86.9852 152.768 86.804 152.768 86.4415 152.768C90.972 152.405 94.4151 148.781 94.4151 144.25Z" fill="#D8D9DA"/>
<path opacity="0.91" d="M126.672 150.593C118.517 158.748 108.55 164.003 98.0395 166.178C116.343 169.984 136.277 164.909 150.593 150.593C173.064 128.122 173.064 91.8781 150.593 69.4069C136.277 55.0906 116.343 50.0165 98.0395 53.8221C108.55 55.9967 118.517 61.2521 126.672 69.4069C149.143 91.8781 149.143 128.122 126.672 150.593Z" fill="#00041E"/>
</g>
<defs>
<radialGradient id="paint0_radial_8_60" cx="0" cy="0" r="1" gradientUnits="userSpaceOnUse" gradientTransform="translate(109.979 110.021) rotate(-90) scale(108.25)">
<stop offset="0.0189189" stop-color="white"/>
<stop offset="1" stop-color="white" stop-opacity="0"/>
</radialGradient>
<radialGradient id="paint1_radial_8_60" cx="0" cy="0" r="1" gradientUnits="userSpaceOnUse" gradientTransform="translate(109.979 110.021) rotate(-90) scale(85.59)">
<stop offset="0.0189189" stop-color="white"/>
<stop offset="0.9081" stop-color="white" stop-opacity="0"/>
</radialGradient>
<clipPath id="clip0_8_60">
<rect width="220" height="220" fill="white" transform="matrix(-1 0 0 1 220 0)"/>
</clipPath>
</defs>
</svg>
