<svg width="220" height="220" viewBox="0 0 220 220" fill="none" xmlns="http://www.w3.org/2000/svg">
<g clip-path="url(#clip0_8_29)">
<path opacity="0.3" d="M110 220C170.751 220 220 170.751 220 110C220 49.2487 170.751 0 110 0C49.2487 0 0 49.2487 0 110C0 170.751 49.2487 220 110 220Z" fill="url(#paint0_radial_8_29)"/>
<path d="M110 195.535C157.24 195.535 195.535 157.24 195.535 110C195.535 62.7601 157.24 24.4646 110 24.4646C62.7601 24.4646 24.4646 62.7601 24.4646 110C24.4646 157.24 62.7601 195.535 110 195.535Z" fill="url(#paint1_radial_8_29)"/>
<g opacity="0.49">
<path d="M110 172.883C144.729 172.883 172.883 144.729 172.883 110C172.883 75.2706 144.729 47.1169 110 47.1169C75.2707 47.1169 47.117 75.2706 47.117 110C47.117 144.729 75.2707 172.883 110 172.883Z" fill="white"/>
</g>
<path d="M110 167.446C141.727 167.446 167.446 141.727 167.446 110C167.446 78.2732 141.727 52.5535 110 52.5535C78.2732 52.5535 52.5535 78.2732 52.5535 110C52.5535 141.727 78.2732 167.446 110 167.446Z" fill="#FFF176"/>
<path d="M76.8369 106.194C84.043 106.194 89.8847 100.353 89.8847 93.1466C89.8847 85.9405 84.043 80.0988 76.8369 80.0988C69.6308 80.0988 63.7891 85.9405 63.7891 93.1466C63.7891 100.353 69.6308 106.194 76.8369 106.194Z" fill="#FBD856"/>
<path d="M65.7825 93.1466C65.7825 86.2603 71.0379 80.6425 77.9242 80.0988C77.5618 80.0988 77.1993 80.0988 76.8369 80.0988C69.5881 80.0988 63.7891 85.8978 63.7891 93.1466C63.7891 100.395 69.5881 106.194 76.8369 106.194C77.1993 106.194 77.5618 106.194 77.9242 106.194C71.0379 105.651 65.7825 100.033 65.7825 93.1466Z" fill="#F6B338"/>
<path d="M108.369 129.209C116.676 129.209 123.41 122.475 123.41 114.168C123.41 105.861 116.676 99.1268 108.369 99.1268C100.062 99.1268 93.3278 105.861 93.3278 114.168C93.3278 122.475 100.062 129.209 108.369 129.209Z" fill="#FBD856"/>
<path d="M95.6837 114.168C95.6837 106.194 101.845 99.8517 109.456 99.1268C109.094 99.1268 108.731 99.1268 108.369 99.1268C100.033 99.1268 93.3278 105.832 93.3278 114.168C93.3278 122.504 100.033 129.209 108.369 129.209C108.731 129.209 109.094 129.209 109.456 129.209C101.664 128.666 95.6837 122.142 95.6837 114.168Z" fill="#F6B338"/>
<path d="M130.115 87.8913C135.82 87.8913 140.445 83.2666 140.445 77.5618C140.445 71.857 135.82 67.2323 130.115 67.2323C124.411 67.2323 119.786 71.857 119.786 77.5618C119.786 83.2666 124.411 87.8913 130.115 87.8913Z" fill="#FBD856"/>
<path d="M121.417 77.5618C121.417 72.1252 125.585 67.5947 131.021 67.2323C130.84 67.2323 130.478 67.2323 130.297 67.2323C124.498 67.2323 119.967 71.944 119.967 77.5618C119.967 83.3608 124.679 87.8913 130.297 87.8913C130.478 87.8913 130.84 87.8913 131.021 87.8913C125.585 87.3476 121.417 82.9984 121.417 77.5618Z" fill="#F6B338"/>
<path d="M75.7496 141.351C79.2525 141.351 82.0922 138.511 82.0922 135.008C82.0922 131.505 79.2525 128.666 75.7496 128.666C72.2466 128.666 69.4069 131.505 69.4069 135.008C69.4069 138.511 72.2466 141.351 75.7496 141.351Z" fill="#FBD856"/>
<path d="M70.313 135.008C70.313 131.565 72.8501 128.847 76.2932 128.666C76.112 128.666 75.9308 128.666 75.7496 128.666C72.1252 128.666 69.4069 131.565 69.4069 135.008C69.4069 138.633 72.3064 141.351 75.7496 141.351C75.9308 141.351 76.112 141.351 76.2932 141.351C72.8501 141.17 70.313 138.451 70.313 135.008Z" fill="#F6B338"/>
<path d="M148.781 115.618C151.783 115.618 154.217 113.184 154.217 110.181C154.217 107.179 151.783 104.745 148.781 104.745C145.778 104.745 143.344 107.179 143.344 110.181C143.344 113.184 145.778 115.618 148.781 115.618Z" fill="#FBD856"/>
<path d="M144.069 110.181C144.069 107.282 146.244 104.926 149.143 104.745C148.962 104.745 148.781 104.745 148.781 104.745C145.7 104.745 143.344 107.282 143.344 110.181C143.344 113.081 145.881 115.618 148.781 115.618C148.962 115.618 149.143 115.618 149.143 115.618C146.244 115.437 144.069 113.081 144.069 110.181Z" fill="#F6B338"/>
<path d="M98.7644 73.9374C101.767 73.9374 104.201 71.5033 104.201 68.5008C104.201 65.4982 101.767 63.0642 98.7644 63.0642C95.7619 63.0642 93.3278 65.4982 93.3278 68.5008C93.3278 71.5033 95.7619 73.9374 98.7644 73.9374Z" fill="#FBD856"/>
<path d="M94.2339 68.5008C94.2339 65.6013 96.4085 63.2454 99.308 63.0642C99.1268 63.0642 98.9456 63.0642 98.9456 63.0642C95.8649 63.0642 93.509 65.6013 93.509 68.5008C93.509 71.4003 96.0461 73.9374 98.9456 73.9374C99.1268 73.9374 99.308 73.9374 99.308 73.9374C96.4085 73.7561 94.2339 71.4003 94.2339 68.5008Z" fill="#F6B338"/>
<path d="M132.834 152.768C137.538 152.768 141.351 148.954 141.351 144.25C141.351 139.546 137.538 135.733 132.834 135.733C128.13 135.733 124.316 139.546 124.316 144.25C124.316 148.954 128.13 152.768 132.834 152.768Z" fill="#FBD856"/>
<path d="M125.585 144.25C125.585 139.72 129.028 136.096 133.558 135.733C133.377 135.733 133.196 135.733 132.834 135.733C128.122 135.733 124.316 139.539 124.316 144.25C124.316 148.962 128.122 152.768 132.834 152.768C133.015 152.768 133.196 152.768 133.558 152.768C129.028 152.405 125.585 148.781 125.585 144.25Z" fill="#F6B338"/>
</g>
<defs>
<radialGradient id="paint0_radial_8_29" cx="0" cy="0" r="1" gradientUnits="userSpaceOnUse" gradientTransform="translate(110.021 110.021) rotate(-90) scale(108.25)">
<stop offset="0.0189189" stop-color="white"/>
<stop offset="1" stop-color="white" stop-opacity="0"/>
</radialGradient>
<radialGradient id="paint1_radial_8_29" cx="0" cy="0" r="1" gradientUnits="userSpaceOnUse" gradientTransform="translate(110.021 110.021) rotate(-90) scale(85.5901)">
<stop offset="0.0189189" stop-color="white"/>
<stop offset="0.9081" stop-color="white" stop-opacity="0"/>
</radialGradient>
<clipPath id="clip0_8_29">
<rect width="220" height="220" fill="white"/>
</clipPath>
</defs>
</svg>
