<svg width="220" height="220" viewBox="0 0 220 220" fill="none" xmlns="http://www.w3.org/2000/svg">
<g clip-path="url(#clip0_8_94)">
<path opacity="0.3" d="M110 220C49.2487 220 0 170.751 0 110C0 49.2487 49.2487 0 110 0C170.751 0 220 49.2487 220 110C220 170.751 170.751 220 110 220Z" fill="url(#paint0_radial_8_94)"/>
<path d="M110 195.535C62.7601 195.535 24.4646 157.24 24.4646 110C24.4646 62.7601 62.7601 24.4646 110 24.4646C157.24 24.4646 195.535 62.7601 195.535 110C195.535 157.24 157.24 195.535 110 195.535Z" fill="url(#paint1_radial_8_94)"/>
<g opacity="0.49">
<path d="M110 172.883C75.2707 172.883 47.117 144.729 47.117 110C47.117 75.2706 75.2707 47.1169 110 47.1169C144.729 47.1169 172.883 75.2706 172.883 110C172.883 144.729 144.729 172.883 110 172.883Z" fill="white"/>
</g>
<path d="M110 167.446C78.2732 167.446 52.5535 141.727 52.5535 110C52.5535 78.2732 78.2732 52.5535 110 52.5535C141.727 52.5535 167.446 78.2732 167.446 110C167.446 141.727 141.727 167.446 110 167.446Z" fill="white"/>
<path d="M143.163 106.194C135.957 106.194 130.115 100.353 130.115 93.1466C130.115 85.9405 135.957 80.0988 143.163 80.0988C150.369 80.0988 156.211 85.9405 156.211 93.1466C156.211 100.353 150.369 106.194 143.163 106.194Z" fill="#EFEFF0"/>
<path d="M154.399 93.1466C154.399 86.2603 149.143 80.6425 142.257 80.0988C142.619 80.0988 142.982 80.0988 143.344 80.0988C150.593 80.0988 156.392 85.8978 156.392 93.1466C156.392 100.395 150.593 106.194 143.344 106.194C142.982 106.194 142.619 106.194 142.257 106.194C148.962 105.651 154.399 100.033 154.399 93.1466Z" fill="#D8D9DA"/>
<path d="M111.631 129.209C103.324 129.209 96.5898 122.475 96.5898 114.168C96.5898 105.861 103.324 99.1268 111.631 99.1268C119.938 99.1268 126.672 105.861 126.672 114.168C126.672 122.475 119.938 129.209 111.631 129.209Z" fill="#EFEFF0"/>
<path d="M124.498 114.168C124.498 106.194 118.336 99.8517 110.725 99.1268C111.087 99.1268 111.45 99.1268 111.812 99.1268C120.148 99.1268 126.853 105.832 126.853 114.168C126.853 122.504 120.148 129.209 111.812 129.209C111.45 129.209 111.087 129.209 110.725 129.209C118.336 128.666 124.498 122.142 124.498 114.168Z" fill="#D8D9DA"/>
<path d="M89.8847 87.8913C84.1799 87.8913 79.5552 83.2666 79.5552 77.5618C79.5552 71.857 84.1799 67.2323 89.8847 67.2323C95.5895 67.2323 100.214 71.857 100.214 77.5618C100.214 83.2666 95.5895 87.8913 89.8847 87.8913Z" fill="#EFEFF0"/>
<path d="M98.5832 77.5618C98.5832 72.1252 94.4152 67.5947 88.9786 67.2323C89.1598 67.2323 89.5223 67.2323 89.7035 67.2323C95.5025 67.2323 100.033 71.944 100.033 77.5618C100.033 83.3608 95.3213 87.8913 89.7035 87.8913C89.5223 87.8913 89.1598 87.8913 88.9786 87.8913C94.4152 87.3476 98.5832 82.9984 98.5832 77.5618Z" fill="#D8D9DA"/>
<path d="M144.432 141.351C140.929 141.351 138.089 138.511 138.089 135.008C138.089 131.505 140.929 128.666 144.432 128.666C147.935 128.666 150.774 131.505 150.774 135.008C150.774 138.511 147.935 141.351 144.432 141.351Z" fill="#EFEFF0"/>
<path d="M149.868 135.008C149.868 131.565 147.331 128.847 143.888 128.666C144.069 128.666 144.25 128.666 144.432 128.666C148.056 128.666 150.774 131.565 150.774 135.008C150.774 138.633 147.875 141.351 144.432 141.351C144.25 141.351 144.069 141.351 143.888 141.351C147.15 141.17 149.868 138.451 149.868 135.008Z" fill="#D8D9DA"/>
<path d="M71.4003 115.618C68.3978 115.618 65.9637 113.184 65.9637 110.181C65.9637 107.179 68.3978 104.745 71.4003 104.745C74.4028 104.745 76.8369 107.179 76.8369 110.181C76.8369 113.184 74.4028 115.618 71.4003 115.618Z" fill="#EFEFF0"/>
<path d="M75.9308 110.181C75.9308 107.282 73.7562 104.926 70.8567 104.745C71.0379 104.745 71.2191 104.745 71.2191 104.745C74.2998 104.745 76.6557 107.282 76.6557 110.181C76.6557 113.262 74.1186 115.618 71.2191 115.618C71.0379 115.618 70.8567 115.618 70.8567 115.618C73.7562 115.437 75.9308 113.081 75.9308 110.181Z" fill="#D8D9DA"/>
<path d="M121.236 73.9374C118.233 73.9374 115.799 71.5033 115.799 68.5008C115.799 65.4982 118.233 63.0642 121.236 63.0642C124.238 63.0642 126.672 65.4982 126.672 68.5008C126.672 71.5033 124.238 73.9374 121.236 73.9374Z" fill="#EFEFF0"/>
<path d="M125.947 68.5008C125.947 65.6013 123.773 63.2454 120.873 63.0642C121.054 63.0642 121.236 63.0642 121.236 63.0642C124.316 63.0642 126.672 65.6013 126.672 68.5008C126.672 71.5815 124.135 73.9374 121.236 73.9374C121.054 73.9374 120.873 73.9374 120.873 73.9374C123.591 73.7561 125.947 71.4003 125.947 68.5008Z" fill="#D8D9DA"/>
<path d="M87.1664 152.768C82.4624 152.768 78.6491 148.954 78.6491 144.25C78.6491 139.546 82.4624 135.733 87.1664 135.733C91.8704 135.733 95.6837 139.546 95.6837 144.25C95.6837 148.954 91.8704 152.768 87.1664 152.768Z" fill="#EFEFF0"/>
<path d="M94.4152 144.25C94.4152 139.72 90.972 136.096 86.4415 135.733C86.6227 135.733 86.804 135.733 87.1664 135.733C91.8781 135.733 95.6837 139.539 95.6837 144.25C95.6837 148.962 91.8781 152.768 87.1664 152.768C86.9852 152.768 86.8039 152.768 86.4415 152.768C90.972 152.405 94.4152 148.781 94.4152 144.25Z" fill="#D8D9DA"/>
<path opacity="0.91" d="M94.234 150.593C102.208 158.567 111.993 163.822 122.323 165.997C132.652 163.641 142.438 158.567 150.412 150.593C172.883 128.122 172.883 91.8781 150.412 69.4069C142.438 61.4333 132.652 56.1779 122.323 54.0033C111.993 56.3591 102.208 61.4333 94.234 69.4069C71.944 91.8781 71.944 128.122 94.234 150.593Z" fill="#00041E"/>
</g>
<defs>
<radialGradient id="paint0_radial_8_94" cx="0" cy="0" r="1" gradientUnits="userSpaceOnUse" gradientTransform="translate(110.022 110.021) rotate(-90) scale(108.25)">
<stop offset="0.0189189" stop-color="white"/>
<stop offset="1" stop-color="white" stop-opacity="0"/>
</radialGradient>
<radialGradient id="paint1_radial_8_94" cx="0" cy="0" r="1" gradientUnits="userSpaceOnUse" gradientTransform="translate(110.022 110.021) rotate(-90) scale(85.59)">
<stop offset="0.0189189" stop-color="white"/>
<stop offset="0.9081" stop-color="white" stop-opacity="0"/>
</radialGradient>
<clipPath id="clip0_8_94">
<rect width="220" height="220" fill="white" transform="matrix(-1 0 0 1 220 0)"/>
</clipPath>
</defs>
</svg>
